<svg xmlns="http://www.w3.org/2000/svg" xmlns:xlink="http://www.w3.org/1999/xlink" style="enable-background:new 0 0 508.1 508.1" id="Capa_1" width="512" height="512" x="0" y="0" version="1.1" viewBox="0 0 508.1 508.1" xml:space="preserve"><g><g><path fill="#32c69a" d="M442.5,49.25V0.05H377v49.2H131.1V0.05H65.5v49.2H0v421.3l37.6,37.5h432.9l37.6-37.6V49.25H442.5z M393.3,16.45h32.8v65.5 h-32.8V16.45z M81.9,16.45h32.8v65.5H81.9V16.45z M16.4,65.55h49.1v32.8H131v-32.8h245.8v32.8h65.5v-32.8h49.2v49.2H16.4V65.55z M491.6,463.65l-28,28H44.4l-28-28v-332.5h475.2V463.65z"/></g></g><g><g><rect width="16.4" height="16.4" x="245.8" y="81.95" fill="#32c69a"/></g></g><g><g><rect width="16.4" height="16.4" x="278.6" y="81.95" fill="#32c69a"/></g></g><g><g><rect width="16.4" height="16.4" x="213" y="81.95" fill="#32c69a"/></g></g><g><g><path fill="#32c69a" d="M155.7,163.95v81.9h81.9v-81.9H155.7z M221.3,229.55h-49.2v-49.2h49.2V229.55z"/></g></g><g><g><path fill="#32c69a" d="M270.4,163.95v81.9h81.9v-81.9H270.4z M336,229.55h-49.2v-49.2H336V229.55z"/></g></g><g><g><path fill="#32c69a" d="M385.1,163.95v81.9H467v-81.9H385.1z M450.7,229.55h-49.2v-49.2h49.2V229.55z"/></g></g><g><g><path fill="#32c69a" d="M41,270.45v81.9h81.9v-81.9H41z M106.6,336.05H57.4v-49.2h49.2V336.05z"/></g></g><g><g><path fill="#32c69a" d="M155.7,270.45v81.9h81.9v-81.9H155.7z M221.3,336.05h-49.2v-49.2h49.2V336.05z"/></g></g><g><g><path fill="#32c69a" d="M270.4,270.45v81.9h81.9v-81.9H270.4z M336,336.05h-49.2v-49.2H336V336.05z"/></g></g><g><g><path fill="#32c69a" d="M385.1,270.45v81.9H467v-81.9H385.1z M450.7,336.05h-49.2v-49.2h49.2V336.05z"/></g></g><g><g><path fill="#32c69a" d="M41,376.95v81.9h81.9v-81.9H41z M106.6,442.55H57.4v-49.2h49.2V442.55z"/></g></g><g><g><path fill="#32c69a" d="M155.7,376.95v81.9h81.9v-81.9H155.7z M221.3,442.55h-49.2v-49.2h49.2V442.55z"/></g></g><g><g><path fill="#32c69a" d="M270.4,376.95v81.9h81.9v-81.9H270.4z M336,442.55h-49.2v-49.2H336V442.55z"/></g></g></svg>