<svg xmlns="http://www.w3.org/2000/svg" xmlns:xlink="http://www.w3.org/1999/xlink" style="enable-background:new 0 0 508 508" id="Capa_1" width="512" height="512" x="0" y="0" version="1.1" viewBox="0 0 508 508" xml:space="preserve"><g><g><path fill="#32c69a" d="M508,196.65v-81.9H335.9v-41H172.1v41H0v81.9h65.5v140c-23.2,3.9-41,24.1-41,48.4c0,27.1,22.1,49.2,49.2,49.2 c27.1,0,49.2-22.1,49.2-49.2c0-24.3-17.8-44.5-41-48.4v-74.5H426v74.5c-23.2,3.9-41,24.1-41,48.4c0,27.1,22.1,49.2,49.2,49.2 c27.1,0,49.2-22.1,49.2-49.2c0-24.3-17.8-44.5-41-48.4v-140H508z M188.5,90.15h131.1v24.6H188.5V90.15z M106.5,385.15 c0,18.1-14.7,32.8-32.8,32.8c-18.1,0-32.7-14.7-32.7-32.8c0-18.1,14.7-32.8,32.8-32.8C91.9,352.35,106.5,367.05,106.5,385.15z M81.9,245.85v-49.2H426v49.2H81.9z M467,385.15c0,18.1-14.7,32.8-32.8,32.8s-32.8-14.7-32.8-32.8s14.7-32.8,32.8-32.8 S467,367.05,467,385.15z M16.4,180.35v-49.2h475.2v49.2H16.4z"/></g></g><g><g><rect width="16.4" height="16.4" x="245.8" y="303.25" fill="#32c69a"/></g></g><g><g><rect width="16.4" height="16.4" x="278.6" y="303.25" fill="#32c69a"/></g></g><g><g><rect width="16.4" height="16.4" x="213" y="303.25" fill="#32c69a"/></g></g></svg>